# xmcd
#
# Track frame offsets: 
#        150
#        24917
#        47167
#        66650
#        83960
#        106810
#        114477
#        131705
#        159867
#        182247
#        214352
#        230445
#
# Disc length: 3185 seconds
#
# Revision: 1
# Processed by: cddbd v1.5.2PL0 Copyright (c) Steve Scherf et al.
# Submitted via: ExactAudioCopy v1.0b3
#
DISCID=a50c6f0c
DTITLE=Matt Wilson - Going Once, Going Twice
DYEAR=1998
DGENRE=Jazz
TTITLE0=Searchlight
TTITLE1=Chit-Chatting
TTITLE2=Hey There
TTITLE3=Request Potato
TTITLE4=Going Once, Going Twice
TTITLE5=Brattleboro
TTITLE6=Land of Lincoln
TTITLE7=Andrew's Ditty
TTITLE8=The Blossoms
TTITLE9=Schoolboy Thug
TTITLE10=Turn, Turn, Turn
TTITLE11=Bonus Track
EXTD=
EXTT0=
EXTT1=
EXTT2=
EXTT3=
EXTT4=
EXTT5=
EXTT6=
EXTT7=
EXTT8=
EXTT9=
EXTT10=
EXTT11=
PLAYORDER=
